<svg width="20" height="20" viewBox="0 0 20 20" fill="none" xmlns="http://www.w3.org/2000/svg">
<path d="M17.8125 10.0001C17.8125 10.2487 17.7137 10.4872 17.5379 10.663C17.3621 10.8388 17.1236 10.9376 16.875 10.9376H10.9375V16.8751C10.9375 17.1237 10.8387 17.3622 10.6629 17.538C10.4871 17.7138 10.2486 17.8126 10 17.8126C9.75136 17.8126 9.5129 17.7138 9.33709 17.538C9.16127 17.3622 9.0625 17.1237 9.0625 16.8751V10.9376H3.125C2.87636 10.9376 2.6379 10.8388 2.46209 10.663C2.28627 10.4872 2.1875 10.2487 2.1875 10.0001C2.1875 9.75142 2.28627 9.51296 2.46209 9.33715C2.6379 9.16133 2.87636 9.06256 3.125 9.06256H9.0625V3.12506C9.0625 2.87642 9.16127 2.63796 9.33709 2.46215C9.5129 2.28633 9.75136 2.18756 10 2.18756C10.2486 2.18756 10.4871 2.28633 10.6629 2.46215C10.8387 2.63796 10.9375 2.87642 10.9375 3.12506V9.06256H16.875C17.1236 9.06256 17.3621 9.16133 17.5379 9.33715C17.7137 9.51296 17.8125 9.75142 17.8125 10.0001Z" fill="black"/>
</svg>
