<svg width="153" height="67" viewBox="0 0 153 67" xmlns="http://www.w3.org/2000/svg" xmlns:xlink="http://www.w3.org/1999/xlink">
    <defs>
        <path id="57574660aa" d="M0 0h21v38H0z"/>
    </defs>
    <g fill="none" fill-rule="evenodd">
        <g transform="translate(0 14)">
            <mask id="7i7lwjzmmb" fill="#fff">
                <use xlink:href="#57574660aa"/>
            </mask>
            <path fill="#00599A" mask="url(#7i7lwjzmmb)" d="M21 8.527V0H-.048v38h9.846V23.52h10.788v-8.526H9.798V8.527H21"/>
        </g>
        <path fill="#00599A" d="M83.752 32.9 96.675 14H86.188L75.01 31.1V14H65v38h10.01V35.568L85.816 52H98L83.752 32.9"/>
        <path d="M106.65 14v23.12c0 1.294.05 3.105.664 4.603.664 1.501 1.888 2.692 4.237 2.692 2.4 0 3.625-1.087 4.187-2.484.612-1.448.612-3.31.612-4.81V14H126v23.12c0 6.414-1.378 9.26-3.778 11.742-2.45 2.534-5.872 4.138-10.57 4.138-2.756 0-7.76-.672-10.874-4.086C97.663 45.448 97 42.76 97 37.12V14h9.65" fill="#00599A"/>
        <path d="M135.676 39.51c0 4.48 2.725 5.261 3.958 5.261 2.313 0 3.701-1.927 3.701-3.698 0-2.031-1.593-2.656-7.454-5.156-2.673-1.093-9.303-3.803-9.303-11.042 0-7.76 6.94-11.875 13.313-11.875 5.243 0 12.647 2.707 12.8 11.98h-9.613c-.205-1.303-.514-3.751-3.496-3.751-1.695 0-3.34 1.198-3.34 3.02 0 1.772 1.028 2.24 7.865 5.366C151.2 32.844 153 36.178 153 40.656 153 46.803 149.813 53 139.737 53c-9.973 0-13.983-5.937-13.725-13.49h9.664" fill="#00599A"/>
        <path d="M43 21.904c-6.119 0-11.096 4.978-11.096 11.096S36.88 44.096 43 44.096 54.096 39.118 54.096 33 49.12 21.904 43 21.904M43 53c-11.029 0-20-8.972-20-20s8.971-20 20-20 20 8.972 20 20-8.971 20-20 20" fill="#41AC47"/>
        <path d="M23.986 18.071c4.363-5.567 11.104-9.14 18.651-9.14 7.931 0 14.967 3.942 19.294 9.99v-8.186h4.77C60.73 4.145 52.151 0 42.636 0c-9.513 0-18.091 4.144-24.061 10.735h5.41v7.336zm37.945 36.854v-7.841c-4.327 6.043-11.363 9.985-19.294 9.985-10.585 0-19.581-7.025-22.66-16.713H13v6.442a33.029 33.029 0 0 0 8.884 11.646c4.575 3.829 10.192 6.413 16.35 7.252a32.248 32.248 0 0 0 25.156-7.251 31.644 31.644 0 0 0 3.61-3.52h-5.07zM50 33a7 7 0 1 1-14 0 7 7 0 0 1 14 0" fill="#41AC47"/>
        <path fill="#656A6A" d="M65 59h5v1.417h-3.205v1.816h3.144v1.416h-3.144v1.934H70V67h-5v-8M87.401 64.546 87.367 59H89v8h-1.507l-3.895-5.535.035 5.535H82v-8h1.519l3.882 5.546M99 59h5v1.417h-3.205v1.816h3.145v1.416h-3.145v1.934H104V67h-5v-8M116 59h2.48c1.273 0 2.004.195 2.446.508.675.476 1.04 1.287 1.04 2.173 0 .584-.165 1.103-.442 1.492-.354.508-.82.734-1.35.865L122 67h-1.727l-2.203-3.72h.321c.543 0 1.13-.032 1.473-.29.32-.26.52-.682.52-1.168 0-.487-.244-.93-.609-1.157-.3-.183-.697-.248-1.162-.248h-.963V67H116v-8M137 63.955c0 .839-.075 1.337-.244 1.73a2.29 2.29 0 0 1-.786.87 2.708 2.708 0 0 1-1.497.445c-.34 0-2.09-.116-2.42-1.899a3.886 3.886 0 0 1-.053-.52h1.688c0 .074.01.138.021.213.117.509.435.816.839.816.435-.01.668-.244.763-.509.096-.244.107-.52.107-.764V59H137v4.955M149 60h2v-2h-2zM149 67h2v-6h-2z"/>
    </g>
</svg>
