<svg width="653" height="200" viewBox="0 0 653 200" fill="none" xmlns="http://www.w3.org/2000/svg">
<path opacity="0.6" d="M648.349 48.5525C649.876 58.0993 644.003 69.4411 629.369 82.0401C614.933 94.4682 592.941 107.245 564.854 119.571C508.736 144.198 429.139 166.655 339.391 181.009C249.643 195.363 167.012 198.852 106.013 192.957C75.4821 190.007 50.6027 184.727 33.0106 177.421C15.1767 170.015 6.05883 161.071 4.53194 151.524C3.00504 141.977 8.87836 130.636 23.5127 118.037C37.9486 105.608 59.9399 92.8315 88.0272 80.5058C144.145 55.8791 223.743 33.4216 313.49 19.0674C403.238 4.71327 485.869 1.22417 546.869 7.11913C577.399 10.0696 602.279 15.35 619.871 22.6556C637.705 30.0617 646.822 39.0058 648.349 48.5525Z" fill="white" stroke="#FD77AB" stroke-width="8"/>
</svg>
