<svg xmlns="http://www.w3.org/2000/svg" xmlns:xlink="http://www.w3.org/1999/xlink" width="500" zoomAndPan="magnify" viewBox="0 0 375 374.999991" height="500" preserveAspectRatio="xMidYMid meet" version="1.0"><defs><g/><clipPath id="cc82437094"><path d="M 122 146 L 291 146 L 291 173 L 122 173 Z M 122 146 " clip-rule="nonzero"/></clipPath><clipPath id="8bcf183722"><path d="M 121.445312 145.777344 L 289.070312 134.558594 L 291.375 168.980469 L 123.75 180.199219 Z M 121.445312 145.777344 " clip-rule="nonzero"/></clipPath><clipPath id="1edc893174"><path d="M 123.753906 180.269531 L 291.378906 169.050781 L 289.074219 134.628906 L 121.449219 145.847656 Z M 123.753906 180.269531 " clip-rule="nonzero"/></clipPath></defs><rect x="-37.5" width="450" fill="#ffffff" y="-37.499999" height="449.999989" fill-opacity="1"/><rect x="-37.5" width="450" fill="#ffffff" y="-37.499999" height="449.999989" fill-opacity="1"/><g fill="#000000" fill-opacity="1"><g transform="translate(115.85703, 212.153511)"><g><path d="M 58.828125 -55.046875 C 59.765625 -50.359375 60.359375 -44.738281 60.609375 -38.1875 C 60.671875 -33.28125 60.285156 -28.101562 59.453125 -22.65625 C 58.617188 -17.21875 57.109375 -11.78125 54.921875 -6.34375 C 53.535156 -3.144531 51.914062 -0.0976562 50.0625 2.796875 C 48.21875 5.703125 46.035156 8.367188 43.515625 10.796875 C 41.566406 12.703125 39.410156 14.285156 37.046875 15.546875 C 34.441406 16.929688 31.628906 17.753906 28.609375 18.015625 C 25.585938 18.273438 22.609375 17.851562 19.671875 16.75 C 16.734375 15.65625 14.050781 13.765625 11.625 11.078125 C 9.425781 8.515625 7.617188 5.703125 6.203125 2.640625 C 2.992188 -4.429688 1.113281 -11.820312 0.5625 -19.53125 C 0.1875 -24.144531 0.285156 -28.71875 0.859375 -33.25 C 1.441406 -37.78125 2.566406 -42.238281 4.234375 -46.625 C 4.910156 -48.445312 5.703125 -50.210938 6.609375 -51.921875 C 7.160156 -52.941406 7.207031 -53.96875 6.75 -55 C 5.195312 -58.71875 4.269531 -62.59375 3.96875 -66.625 C 3.707031 -70.53125 4.289062 -74.207031 5.71875 -77.65625 C 7.15625 -81.101562 9.160156 -84.035156 11.734375 -86.453125 C 14.304688 -88.878906 17.191406 -90.515625 20.390625 -91.359375 C 28.171875 -93.367188 35.335938 -92.015625 41.890625 -87.296875 C 45.953125 -84.316406 49.175781 -80.59375 51.5625 -76.125 C 53.34375 -72.800781 54.8125 -69.378906 55.96875 -65.859375 C 57.132812 -62.335938 58.085938 -58.734375 58.828125 -55.046875 Z M 51.71875 -9.875 C 53.238281 -14.15625 54.335938 -18.492188 55.015625 -22.890625 C 55.691406 -27.285156 56.066406 -31.675781 56.140625 -36.0625 C 56.140625 -45.175781 54.894531 -54 52.40625 -62.53125 C 51.613281 -65.175781 50.6875 -67.765625 49.625 -70.296875 C 48.570312 -72.835938 47.28125 -75.28125 45.75 -77.625 C 44.363281 -79.789062 42.757812 -81.734375 40.9375 -83.453125 C 39.125 -85.179688 37.039062 -86.628906 34.6875 -87.796875 C 31.925781 -89.171875 29.171875 -89.847656 26.421875 -89.828125 C 23.671875 -89.816406 20.992188 -88.910156 18.390625 -87.109375 C 15.066406 -84.847656 12.566406 -82.113281 10.890625 -78.90625 C 9.210938 -75.707031 8.453125 -72.097656 8.609375 -68.078125 C 8.984375 -57.835938 13.035156 -49.304688 20.765625 -42.484375 C 23.242188 -40.296875 25.878906 -38.394531 28.671875 -36.78125 C 31.460938 -35.175781 34.441406 -33.9375 37.609375 -33.0625 C 37.742188 -33.007812 37.882812 -32.96875 38.03125 -32.9375 C 38.34375 -32.894531 38.632812 -32.816406 38.90625 -32.703125 C 39.1875 -32.597656 39.4375 -32.4375 39.65625 -32.21875 C 39.78125 -32.101562 39.863281 -31.957031 39.90625 -31.78125 C 39.957031 -31.613281 39.984375 -31.457031 39.984375 -31.3125 C 39.953125 -31.207031 39.890625 -31.078125 39.796875 -30.921875 C 39.703125 -30.773438 39.597656 -30.664062 39.484375 -30.59375 C 38.859375 -30.257812 38.234375 -30.242188 37.609375 -30.546875 C 36.585938 -31.015625 35.535156 -31.382812 34.453125 -31.65625 C 34.265625 -31.695312 34.101562 -31.734375 33.96875 -31.765625 C 24.394531 -34.335938 16.6875 -39.582031 10.84375 -47.5 C 10.757812 -47.625 10.679688 -47.742188 10.609375 -47.859375 C 10.492188 -48.117188 10.34375 -48.332031 10.15625 -48.5 C 9.96875 -48.664062 9.734375 -48.707031 9.453125 -48.625 C 9.222656 -48.59375 9.0625 -48.488281 8.96875 -48.3125 C 8.882812 -48.144531 8.816406 -47.953125 8.765625 -47.734375 C 8.722656 -47.578125 8.671875 -47.453125 8.609375 -47.359375 C 8.492188 -47.085938 8.398438 -46.804688 8.328125 -46.515625 C 8.296875 -46.398438 8.238281 -46.265625 8.15625 -46.109375 C 5.8125 -39.410156 4.601562 -32.695312 4.53125 -25.96875 C 4.457031 -19.25 5.425781 -12.503906 7.4375 -5.734375 C 8.132812 -3.316406 8.992188 -0.984375 10.015625 1.265625 C 11.035156 3.515625 12.273438 5.664062 13.734375 7.71875 C 15.441406 10.132812 17.566406 12.113281 20.109375 13.65625 C 23.765625 15.894531 27.597656 16.269531 31.609375 14.78125 C 33.929688 13.84375 36.054688 12.585938 37.984375 11.015625 C 39.847656 9.492188 41.523438 7.800781 43.015625 5.9375 C 44.910156 3.550781 46.578125 1.03125 48.015625 -1.625 C 49.453125 -4.28125 50.6875 -7.03125 51.71875 -9.875 Z M 51.71875 -9.875 "/></g></g></g><g fill="#000000" fill-opacity="1"><g transform="translate(179.963544, 212.153511)"><g><path d="M 21 -9.765625 C 22.300781 -11.835938 23.070312 -13.148438 23.3125 -13.703125 C 23.5625 -14.265625 23.757812 -14.238281 23.90625 -13.625 C 24.050781 -13.019531 23.628906 -11.644531 22.640625 -9.5 C 21.660156 -7.363281 20.441406 -5.710938 18.984375 -4.546875 C 17.535156 -3.390625 16.179688 -2.960938 14.921875 -3.265625 C 13.660156 -3.578125 12.757812 -4.457031 12.21875 -5.90625 C 11.675781 -7.351562 11.515625 -9.175781 11.734375 -11.375 C 11.734375 -11.40625 11.75 -11.5 11.78125 -11.65625 C 11.8125 -12.03125 11.875 -12.578125 11.96875 -13.296875 C 12.0625 -14.023438 12.128906 -14.78125 12.171875 -15.5625 C 12.210938 -16.34375 12.1875 -16.984375 12.09375 -17.484375 C 12 -17.992188 11.769531 -18.175781 11.40625 -18.03125 C 10.507812 -17.539062 9.628906 -16.578125 8.765625 -15.140625 C 7.910156 -13.710938 7.132812 -12.210938 6.4375 -10.640625 C 5.75 -9.078125 5.265625 -7.816406 4.984375 -6.859375 C 4.859375 -6.554688 4.742188 -6.234375 4.640625 -5.890625 C 4.492188 -5.453125 4.328125 -5.015625 4.140625 -4.578125 C 3.648438 -3.304688 2.796875 -2.8125 1.578125 -3.09375 C 0.898438 -3.25 0.5 -3.664062 0.375 -4.34375 C 0.34375 -4.863281 0.328125 -5.363281 0.328125 -5.84375 C 0.328125 -6.144531 0.3125 -6.421875 0.28125 -6.671875 C 0.207031 -10.429688 0.113281 -14.21875 0 -18.03125 C 0.03125 -18.46875 0.222656 -18.769531 0.578125 -18.9375 C 0.941406 -19.113281 1.367188 -19.203125 1.859375 -19.203125 C 2.222656 -19.203125 2.570312 -19.097656 2.90625 -18.890625 C 3.238281 -18.691406 3.445312 -18.269531 3.53125 -17.625 C 3.5625 -17.40625 3.578125 -17.1875 3.578125 -16.96875 C 3.609375 -16.84375 3.625 -16.726562 3.625 -16.625 C 3.695312 -16.101562 3.734375 -15.65625 3.734375 -15.28125 C 3.734375 -14.726562 3.769531 -14.347656 3.84375 -14.140625 C 3.925781 -13.941406 4.085938 -13.953125 4.328125 -14.171875 C 4.578125 -14.390625 4.976562 -14.914062 5.53125 -15.75 C 6.5 -17.238281 7.691406 -18.5 9.109375 -19.53125 C 10.421875 -20.457031 11.851562 -20.84375 13.40625 -20.6875 C 14.738281 -20.550781 15.632812 -19.851562 16.09375 -18.59375 C 16.28125 -17.945312 16.375 -17.296875 16.375 -16.640625 C 16.375 -15.992188 16.332031 -15.335938 16.25 -14.671875 C 16.21875 -13.992188 16.164062 -13.300781 16.09375 -12.59375 C 16.039062 -12.375 16 -12.15625 15.96875 -11.9375 C 15.75 -9.507812 15.828125 -7.882812 16.203125 -7.0625 C 16.578125 -6.25 17.144531 -5.976562 17.90625 -6.25 C 18.664062 -6.53125 19.695312 -7.703125 21 -9.765625 Z M 21 -9.765625 "/></g></g></g><g fill="#000000" fill-opacity="1"><g transform="translate(202.305614, 212.153511)"><g><path d="M 26.25 -12.765625 C 26.625 -12.734375 26.5625 -12.222656 26.0625 -11.234375 C 25.5625 -10.242188 24.738281 -9.101562 23.59375 -7.8125 C 22.457031 -6.53125 21.179688 -5.421875 19.765625 -4.484375 C 18.347656 -3.554688 16.941406 -3.132812 15.546875 -3.21875 C 14.492188 -3.320312 13.71875 -3.632812 13.21875 -4.15625 C 12.71875 -4.6875 12.375 -5.269531 12.1875 -5.90625 C 12 -6.539062 11.878906 -7.09375 11.828125 -7.5625 C 11.796875 -7.90625 11.753906 -8.160156 11.703125 -8.328125 C 11.648438 -8.492188 11.550781 -8.503906 11.40625 -8.359375 C 10.320312 -5.867188 8.441406 -4.625 5.765625 -4.625 C 4.273438 -4.625 3.0625 -5.28125 2.125 -6.59375 C 1.195312 -7.914062 0.609375 -9.570312 0.359375 -11.5625 C 0.117188 -13.550781 0.3125 -15.570312 0.9375 -17.625 C 1.09375 -18.300781 1.507812 -18.765625 2.1875 -19.015625 C 2.65625 -19.203125 3.144531 -19.1875 3.65625 -18.96875 C 4.164062 -18.75 4.4375 -18.421875 4.46875 -17.984375 C 4.46875 -17.523438 4.4375 -17.070312 4.375 -16.625 C 4.28125 -16.289062 4.21875 -15.972656 4.1875 -15.671875 C 4.125 -14.453125 4.144531 -13.113281 4.25 -11.65625 C 4.363281 -10.195312 4.75 -8.953125 5.40625 -7.921875 C 6.050781 -7.085938 6.757812 -6.976562 7.53125 -7.59375 C 8.3125 -8.21875 9 -9.179688 9.59375 -10.484375 C 10.050781 -11.515625 10.410156 -12.539062 10.671875 -13.5625 C 10.941406 -14.59375 11.109375 -15.390625 11.171875 -15.953125 C 11.242188 -16.179688 11.28125 -16.332031 11.28125 -16.40625 C 11.394531 -16.84375 11.507812 -17.273438 11.625 -17.703125 C 11.8125 -18.328125 12 -18.9375 12.1875 -19.53125 C 12.507812 -20.675781 13.320312 -21.15625 14.625 -20.96875 C 15.414062 -20.90625 15.847656 -20.519531 15.921875 -19.8125 C 15.984375 -18.84375 16 -17.875 15.96875 -16.90625 C 15.9375 -15.894531 15.882812 -14.90625 15.8125 -13.9375 C 15.726562 -12.53125 15.671875 -11.132812 15.640625 -9.75 C 15.609375 -7.738281 16.007812 -6.566406 16.84375 -6.234375 C 17.6875 -5.898438 18.710938 -6.113281 19.921875 -6.875 C 21.128906 -7.644531 22.289062 -8.679688 23.40625 -9.984375 C 23.507812 -10.097656 23.640625 -10.25 23.796875 -10.4375 C 24.015625 -10.726562 24.285156 -11.050781 24.609375 -11.40625 C 24.929688 -11.757812 25.238281 -12.066406 25.53125 -12.328125 C 25.820312 -12.585938 26.0625 -12.734375 26.25 -12.765625 Z M 26.25 -12.765625 "/></g></g></g><g fill="#000000" fill-opacity="1"><g transform="translate(227.059618, 212.153511)"><g><path d="M 16.203125 -12.15625 C 16.523438 -12.820312 16.742188 -13.128906 16.859375 -13.078125 C 16.972656 -13.023438 17 -12.753906 16.9375 -12.265625 C 16.882812 -11.785156 16.78125 -11.242188 16.625 -10.640625 C 16.40625 -9.710938 16.023438 -8.632812 15.484375 -7.40625 C 14.941406 -6.175781 14.34375 -5.0625 13.6875 -4.0625 C 12.707031 -2.675781 11.492188 -1.628906 10.046875 -0.921875 C 8.597656 -0.222656 7.285156 -0.0507812 6.109375 -0.40625 C 4.929688 -0.757812 4.25 -1.867188 4.0625 -3.734375 C 4.03125 -5.285156 4.164062 -6.992188 4.46875 -8.859375 C 4.570312 -9.640625 4.679688 -10.398438 4.796875 -11.140625 C 4.796875 -11.410156 4.726562 -11.617188 4.59375 -11.765625 C 4.457031 -11.910156 4.28125 -11.96875 4.0625 -11.9375 C 3.90625 -11.9375 3.738281 -11.9375 3.5625 -11.9375 C 2.625 -11.78125 1.675781 -11.796875 0.71875 -11.984375 C -0.4375 -12.328125 -1.109375 -12.898438 -1.296875 -13.703125 C -1.484375 -14.503906 -1.46875 -15.554688 -1.25 -16.859375 C -1.125 -17.785156 -0.773438 -18.484375 -0.203125 -18.953125 C 0.367188 -19.421875 1.046875 -19.613281 1.828125 -19.53125 C 2.910156 -19.425781 3.4375 -19.007812 3.40625 -18.28125 C 3.375 -17.550781 3.171875 -16.773438 2.796875 -15.953125 C 2.453125 -15.253906 2.269531 -14.671875 2.25 -14.203125 C 2.238281 -13.742188 2.640625 -13.582031 3.453125 -13.71875 C 3.640625 -13.757812 3.84375 -13.816406 4.0625 -13.890625 C 4.363281 -14.003906 4.707031 -14.109375 5.09375 -14.203125 C 5.488281 -14.296875 6 -14.316406 6.625 -14.265625 C 7.375 -14.234375 7.867188 -13.890625 8.109375 -13.234375 C 8.359375 -12.585938 8.460938 -11.769531 8.421875 -10.78125 C 8.390625 -9.800781 8.300781 -8.804688 8.15625 -7.796875 C 7.96875 -6.523438 7.875 -5.4375 7.875 -4.53125 C 7.875 -3.625 8.132812 -3.097656 8.65625 -2.953125 C 9.351562 -2.765625 10.390625 -3.394531 11.765625 -4.84375 C 13.148438 -6.289062 14.628906 -8.726562 16.203125 -12.15625 Z M 16.203125 -12.15625 "/></g></g></g><g clip-path="url(#cc82437094)"><g clip-path="url(#8bcf183722)"><g clip-path="url(#1edc893174)"><path fill="#000000" d="M 124.824219 159.019531 C 124.417969 158.585938 123.746094 158.5625 123.3125 158.96875 C 122.882812 159.375 122.859375 160.050781 123.265625 160.480469 C 125.78125 163.167969 128 165.226562 130.363281 166.867188 L 130.433594 166.910156 C 132.789062 168.535156 135.265625 169.734375 138.285156 170.710938 C 157.644531 176.964844 183.195312 168.558594 208.105469 160.367188 C 242.730469 148.972656 276.097656 138 288.300781 168.378906 C 288.519531 168.925781 289.144531 169.195312 289.691406 168.972656 C 290.242188 168.753906 290.507812 168.132812 290.289062 167.582031 C 277.335938 135.347656 243.039062 146.628906 207.441406 158.335938 C 182.855469 166.425781 157.636719 174.722656 138.933594 168.683594 C 136.121094 167.773438 133.820312 166.660156 131.640625 165.160156 L 131.582031 165.113281 C 129.367188 163.574219 127.25 161.609375 124.828125 159.019531 Z M 124.824219 159.019531 " fill-opacity="1" fill-rule="evenodd"/></g></g></g><g fill="#000000" fill-opacity="1"><g transform="translate(177.688147, 227.353507)"><g><path d="M 3.09375 -7 L 3.796875 -7 L 6.703125 0 L 5.90625 0 L 5.09375 -1.953125 L 1.796875 -1.953125 L 1 0 L 0.203125 0 Z M 4.796875 -2.65625 L 3.453125 -5.953125 L 2.09375 -2.65625 Z M 4.796875 -2.65625 "/></g></g></g><g fill="#000000" fill-opacity="1"><g transform="translate(190.985451, 227.353507)"><g><path d="M 1.046875 -7 L 3.84375 -7 C 4.15625 -7 4.441406 -6.945312 4.703125 -6.84375 C 4.972656 -6.738281 5.203125 -6.59375 5.390625 -6.40625 C 5.585938 -6.21875 5.738281 -5.992188 5.84375 -5.734375 C 5.945312 -5.472656 6 -5.195312 6 -4.90625 C 6 -4.5 5.921875 -4.164062 5.765625 -3.90625 C 5.617188 -3.65625 5.453125 -3.453125 5.265625 -3.296875 C 5.054688 -3.128906 4.816406 -3 4.546875 -2.90625 L 6.203125 0 L 5.34375 0 L 3.796875 -2.796875 L 1.796875 -2.796875 L 1.796875 0 L 1.046875 0 Z M 3.84375 -3.5 C 4.269531 -3.5 4.609375 -3.625 4.859375 -3.875 C 5.117188 -4.132812 5.25 -4.476562 5.25 -4.90625 C 5.25 -5.332031 5.117188 -5.671875 4.859375 -5.921875 C 4.609375 -6.171875 4.269531 -6.296875 3.84375 -6.296875 L 1.796875 -6.296875 L 1.796875 -3.5 Z M 3.84375 -3.5 "/></g></g></g><g fill="#000000" fill-opacity="1"><g transform="translate(204.132815, 227.353507)"><g><path d="M 1.046875 -7 L 3.25 -7 C 3.757812 -7 4.234375 -6.90625 4.671875 -6.71875 C 5.117188 -6.53125 5.507812 -6.273438 5.84375 -5.953125 C 6.175781 -5.640625 6.4375 -5.269531 6.625 -4.84375 C 6.8125 -4.414062 6.90625 -3.96875 6.90625 -3.5 C 6.90625 -3.03125 6.8125 -2.582031 6.625 -2.15625 C 6.4375 -1.726562 6.175781 -1.351562 5.84375 -1.03125 C 5.507812 -0.71875 5.117188 -0.46875 4.671875 -0.28125 C 4.234375 -0.09375 3.757812 0 3.25 0 L 1.046875 0 Z M 3.25 -0.703125 C 3.664062 -0.703125 4.050781 -0.773438 4.40625 -0.921875 C 4.757812 -1.066406 5.0625 -1.265625 5.3125 -1.515625 C 5.570312 -1.773438 5.773438 -2.070312 5.921875 -2.40625 C 6.078125 -2.75 6.15625 -3.113281 6.15625 -3.5 C 6.15625 -3.882812 6.078125 -4.242188 5.921875 -4.578125 C 5.773438 -4.921875 5.570312 -5.21875 5.3125 -5.46875 C 5.0625 -5.726562 4.757812 -5.929688 4.40625 -6.078125 C 4.050781 -6.222656 3.664062 -6.296875 3.25 -6.296875 L 1.796875 -6.296875 L 1.796875 -0.703125 Z M 3.25 -0.703125 "/></g></g></g><g fill="#000000" fill-opacity="1"><g transform="translate(218.029892, 227.353507)"><g><path d="M 1.046875 -7 L 1.796875 -7 L 1.796875 0 L 1.046875 0 Z M 1.046875 -7 "/></g></g></g><g fill="#000000" fill-opacity="1"><g transform="translate(227.278803, 227.353507)"><g><path d="M 4 2.046875 C 3.875 2.046875 3.757812 2.03125 3.65625 2 C 3.550781 1.96875 3.460938 1.929688 3.390625 1.890625 C 3.304688 1.835938 3.226562 1.785156 3.15625 1.734375 L 3.34375 1.40625 C 3.394531 1.457031 3.453125 1.5 3.515625 1.53125 C 3.566406 1.5625 3.632812 1.585938 3.71875 1.609375 C 3.800781 1.640625 3.894531 1.65625 4 1.65625 C 4.15625 1.65625 4.273438 1.613281 4.359375 1.53125 C 4.453125 1.445312 4.5 1.351562 4.5 1.25 C 4.5 1.144531 4.460938 1.0625 4.390625 1 C 4.328125 0.9375 4.226562 0.90625 4.09375 0.90625 C 4.050781 0.90625 4.007812 0.910156 3.96875 0.921875 C 3.9375 0.929688 3.90625 0.941406 3.875 0.953125 C 3.851562 0.972656 3.828125 0.988281 3.796875 1 L 3.546875 0.75 L 3.859375 0.078125 C 3.398438 0.0351562 2.972656 -0.0820312 2.578125 -0.28125 C 2.179688 -0.476562 1.832031 -0.738281 1.53125 -1.0625 C 1.238281 -1.382812 1.007812 -1.753906 0.84375 -2.171875 C 0.675781 -2.585938 0.59375 -3.03125 0.59375 -3.5 C 0.59375 -4 0.6875 -4.46875 0.875 -4.90625 C 1.0625 -5.34375 1.316406 -5.722656 1.640625 -6.046875 C 1.972656 -6.378906 2.359375 -6.632812 2.796875 -6.8125 C 3.234375 -7 3.703125 -7.09375 4.203125 -7.09375 C 4.679688 -7.09375 5.097656 -7.015625 5.453125 -6.859375 C 5.804688 -6.710938 6.101562 -6.550781 6.34375 -6.375 C 6.613281 -6.15625 6.847656 -5.914062 7.046875 -5.65625 L 6.546875 -5.203125 C 6.390625 -5.429688 6.195312 -5.628906 5.96875 -5.796875 C 5.78125 -5.953125 5.535156 -6.09375 5.234375 -6.21875 C 4.941406 -6.34375 4.597656 -6.40625 4.203125 -6.40625 C 3.796875 -6.40625 3.421875 -6.328125 3.078125 -6.171875 C 2.734375 -6.023438 2.429688 -5.820312 2.171875 -5.5625 C 1.921875 -5.3125 1.71875 -5.007812 1.5625 -4.65625 C 1.414062 -4.300781 1.34375 -3.914062 1.34375 -3.5 C 1.34375 -3.082031 1.414062 -2.695312 1.5625 -2.34375 C 1.71875 -1.988281 1.921875 -1.679688 2.171875 -1.421875 C 2.429688 -1.171875 2.734375 -0.96875 3.078125 -0.8125 C 3.421875 -0.664062 3.796875 -0.59375 4.203125 -0.59375 C 4.597656 -0.59375 4.945312 -0.65625 5.25 -0.78125 C 5.550781 -0.90625 5.800781 -1.046875 6 -1.203125 C 6.226562 -1.367188 6.425781 -1.566406 6.59375 -1.796875 L 7.09375 -1.34375 C 6.894531 -1.082031 6.660156 -0.851562 6.390625 -0.65625 C 6.265625 -0.5625 6.128906 -0.472656 5.984375 -0.390625 C 5.847656 -0.304688 5.691406 -0.226562 5.515625 -0.15625 C 5.335938 -0.0820312 5.148438 -0.0234375 4.953125 0.015625 C 4.753906 0.0546875 4.539062 0.0820312 4.3125 0.09375 L 4.09375 0.546875 L 4.15625 0.546875 C 4.40625 0.546875 4.597656 0.613281 4.734375 0.75 C 4.878906 0.882812 4.953125 1.054688 4.953125 1.265625 C 4.953125 1.484375 4.867188 1.664062 4.703125 1.8125 C 4.535156 1.96875 4.300781 2.046875 4 2.046875 Z M 4 2.046875 "/></g></g></g></svg>