<svg width="43" height="44" viewBox="0 0 43 44" fill="none" xmlns="http://www.w3.org/2000/svg">
<g id="ant-design:safety-outlined">
<path id="Vector" d="M21.5 2.75L5.375 8.25V24.75C5.375 33.8637 12.5935 41.25 21.5 41.25C30.4065 41.25 37.625 33.8637 37.625 24.75V8.25L21.5 2.75ZM34.6016 24.75C34.6016 32.1535 28.7353 38.1562 21.5 38.1562C14.2647 38.1562 8.39844 32.1535 8.39844 24.75V10.5703L21.5 5.84375L34.6016 10.5703V24.75Z" fill="#2A6F97"/>
<path id="Vector_2" d="M15.8898 20.4145C15.7497 20.2704 15.5832 20.1561 15.3998 20.0782C15.2164 20.0002 15.0198 19.96 14.8211 19.96C14.6225 19.96 14.4259 20.0002 14.2425 20.0782C14.0591 20.1561 13.8926 20.2704 13.7524 20.4145C13.6117 20.5578 13.5 20.7282 13.4238 20.9159C13.3476 21.1036 13.3083 21.3048 13.3083 21.508C13.3083 21.7112 13.3476 21.9125 13.4238 22.1001C13.5 22.2878 13.6117 22.4582 13.7524 22.6016L19.1862 28.1617L19.2744 28.252C19.407 28.3878 19.5644 28.4956 19.7377 28.5692C19.911 28.6427 20.0967 28.6806 20.2843 28.6806C20.4719 28.6806 20.6577 28.6427 20.831 28.5692C21.0043 28.4956 21.1617 28.3878 21.2942 28.252L30.6795 18.6484C30.8123 18.5128 30.9176 18.3517 30.9895 18.1744C31.0614 17.9971 31.0984 17.807 31.0984 17.615C31.0984 17.4231 31.0614 17.233 30.9895 17.0557C30.9176 16.8783 30.8123 16.7173 30.6795 16.5816L30.5619 16.4613C30.4294 16.3255 30.272 16.2177 30.0987 16.1441C29.9254 16.0706 29.7396 16.0327 29.552 16.0327C29.3644 16.0327 29.1786 16.0706 29.0053 16.1441C28.832 16.2177 28.6746 16.3255 28.5421 16.4613L20.2822 24.909L15.8898 20.4145Z" fill="#2A6F97"/>
</g>
</svg>
