<svg width="20" height="20" fill="none" xmlns="http://www.w3.org/2000/svg"><g clip-path="url(#a)"><path d="M10 1.7h3.4c1 0 1.5.2 2 .4.6.2 1 .5 1.5 1 .5.4.8.9 1 1.4l.4 2a60.5 60.5 0 0 1-.4 9 4 4 0 0 1-1 1.4 4 4 0 0 1-1.4 1l-2 .4a60.5 60.5 0 0 1-9-.4 4 4 0 0 1-1.4-1 4 4 0 0 1-1-1.4l-.4-2a60.5 60.5 0 0 1 .4-9c.2-.5.5-1 1-1.4a4 4 0 0 1 1.4-1l2-.4H10Zm0 4.1a4.2 4.2 0 1 0 0 8.4 4.2 4.2 0 0 0 0-8.4Zm5.4-.2a1 1 0 1 0-2 0 1 1 0 0 0 2 0ZM10 7.5a2.5 2.5 0 1 1 0 5 2.5 2.5 0 0 1 0-5Z" fill="#000000"/></g><defs><clipPath id="a"><path fill="#fff" d="M0 0h20v20H0z"/></clipPath></defs></svg>