<svg width="28" height="12" viewBox="0 0 28 12" fill="none" xmlns="http://www.w3.org/2000/svg">
<path d="M5.91978 2.08159C6.23077 1.69261 6.44181 1.17032 6.38615 0.636597C5.9309 0.659234 5.37536 0.93694 5.05373 1.32623C4.76494 1.65959 4.50933 2.20375 4.57597 2.7151C5.08701 2.75943 5.59757 2.45966 5.91978 2.08159Z" fill="#000008"/>
<path d="M6.38036 2.81495C5.63821 2.77074 5.0072 3.23615 4.65278 3.23615C4.29817 3.23615 3.75545 2.83722 3.16844 2.84797C2.40442 2.8592 1.6955 3.29118 1.30779 3.97824C0.510343 5.35269 1.09735 7.39149 1.87282 8.5109C2.24941 9.06471 2.70327 9.6745 3.30129 9.65259C3.86632 9.63042 4.08779 9.28672 4.77461 9.28672C5.46092 9.28672 5.66042 9.65259 6.25854 9.64151C6.8788 9.63042 7.26658 9.08742 7.64317 8.53307C8.07518 7.90176 8.25204 7.29217 8.26316 7.25871C8.25204 7.24762 7.06711 6.79306 7.05613 5.43003C7.04494 4.28875 7.98642 3.74589 8.03073 3.71222C7.49907 2.92589 6.66836 2.83722 6.38036 2.81495Z" fill="#000008"/>
<path d="M12.8424 1.2704C14.4555 1.2704 15.5787 2.3823 15.5787 4.00113C15.5787 5.62575 14.4324 6.74342 12.802 6.74342H11.016V9.58361H9.72566V1.2704L12.8424 1.2704ZM11.016 5.66031H12.4966C13.6201 5.66031 14.2595 5.05546 14.2595 4.00691C14.2595 2.95847 13.6201 2.35929 12.5024 2.35929H11.016V5.66031Z" fill="#000008"/>
<path d="M15.9158 7.86108C15.9158 6.80096 16.7281 6.15001 18.1685 6.06933L19.8276 5.97143V5.50483C19.8276 4.83076 19.3724 4.42749 18.6121 4.42749C17.8918 4.42749 17.4424 4.77309 17.3331 5.3147H16.1579C16.227 4.22003 17.1602 3.4135 18.6581 3.4135C20.1271 3.4135 21.0661 4.19125 21.0661 5.40682V9.58359H19.8736V8.58693H19.8449C19.4935 9.261 18.7272 9.68727 17.9323 9.68727C16.7455 9.68727 15.9158 8.94986 15.9158 7.86108ZM19.8276 7.3138V6.83564L18.3354 6.92776C17.5922 6.97965 17.1717 7.30802 17.1717 7.82652C17.1717 8.35646 17.6096 8.70216 18.2779 8.70216C19.1477 8.70216 19.8276 8.10299 19.8276 7.3138Z" fill="#000008"/>
<path d="M22.192 11.8132V10.8049C22.284 10.8279 22.4914 10.8279 22.5952 10.8279C23.1712 10.8279 23.4824 10.586 23.6724 9.96385C23.6724 9.95229 23.782 9.59515 23.782 9.58937L21.5929 3.52295H22.9408L24.4734 8.45447H24.4963L26.0289 3.52295H27.3423L25.0723 9.9004C24.5541 11.3696 23.9549 11.8419 22.699 11.8419C22.5952 11.8419 22.284 11.8304 22.192 11.8132Z" fill="#000008"/>
</svg>
