<svg width="26" height="16" viewBox="0 0 26 16" fill="none" xmlns="http://www.w3.org/2000/svg">
<path d="M16.2698 1.84839H9.40651V14.1819H16.2698V1.84839Z" fill="#FF5F00"/>
<path d="M9.84233 8.01514C9.84124 6.82733 10.1104 5.65484 10.6294 4.58644C11.1485 3.51804 11.9038 2.58173 12.8382 1.84838C11.6811 0.938865 10.2914 0.37325 8.82803 0.216185C7.36466 0.0591194 5.88661 0.316937 4.56284 0.96018C3.23907 1.60342 2.12298 2.60614 1.34214 3.8537C0.561296 5.10127 0.147217 6.54336 0.147217 8.01514C0.147217 9.48692 0.561296 10.929 1.34214 12.1766C2.12298 13.4241 3.23907 14.4269 4.56284 15.0701C5.88661 15.7133 7.36466 15.9712 8.82803 15.8141C10.2914 15.657 11.6811 15.0914 12.8382 14.1819C11.9038 13.4485 11.1485 12.5122 10.6295 11.4438C10.1104 10.3754 9.84125 9.20294 9.84233 8.01514Z" fill="#EB001B"/>
<path d="M25.5287 8.01514C25.5288 9.48689 25.1148 10.929 24.334 12.1765C23.5532 13.4241 22.4371 14.4268 21.1134 15.0701C19.7896 15.7133 18.3116 15.9712 16.8483 15.8141C15.3849 15.657 13.9953 15.0914 12.8382 14.1819C13.7717 13.4478 14.5265 12.5113 15.0454 11.4431C15.5644 10.3749 15.834 9.20275 15.834 8.01514C15.834 6.82752 15.5644 5.6554 15.0454 4.58717C14.5265 3.51893 13.7717 2.58247 12.8382 1.84838C13.9953 0.938864 15.3849 0.373246 16.8483 0.216183C18.3116 0.0591193 19.7896 0.316948 21.1134 0.960198C22.4371 1.60345 23.5532 2.60616 24.334 3.85373C25.1148 5.1013 25.5288 6.54338 25.5287 8.01514Z" fill="#F79E1B"/>
<path d="M24.7804 12.8756V12.6231H24.8822V12.5716H24.6229V12.6231H24.7248V12.8756H24.7804ZM25.2838 12.8756V12.5711H25.2044L25.1129 12.7805L25.0215 12.5711H24.942V12.8756H24.9981V12.6459L25.0838 12.8439H25.142L25.2278 12.6454V12.8756H25.2838Z" fill="#F79E1B"/>
</svg>
