<svg width="80" height="80" viewBox="0 0 80 80" fill="none" xmlns="http://www.w3.org/2000/svg">
<circle cx="40" cy="40" r="40" fill="#E4E7EC"/>
<g clip-path="url(#clip0_59_1435)">
<path d="M58.6917 34.5739L53.43 50.6072C53.0981 51.7223 52.5154 52.7466 51.7266 53.6017C50.9377 54.4568 49.9637 55.12 48.879 55.5405C49.4551 54.1982 49.7515 52.7525 49.75 51.2917V35.875C49.7467 33.0139 48.6087 30.2709 46.5856 28.2478C44.5625 26.2247 41.8195 25.0866 38.9583 25.0834H36.3915C37.3434 23.824 38.658 22.8862 40.1586 22.3959C41.6592 21.9057 43.274 21.8864 44.7858 22.3407L53.5517 25.0325C55.4869 25.6336 57.1091 26.9696 58.0701 28.7536C59.0311 30.5375 59.2543 32.6272 58.6917 34.5739ZM46.6667 35.875V51.2917C46.6642 53.3353 45.8513 55.2946 44.4062 56.7396C42.9612 58.1847 41.002 58.9976 38.9583 59H29.7083C27.6647 58.9976 25.7055 58.1847 24.2604 56.7396C22.8154 55.2946 22.0024 53.3353 22 51.2917V35.875C22.0024 33.8314 22.8154 31.8722 24.2604 30.4271C25.7055 28.9821 27.6647 28.1691 29.7083 28.1667H38.9583C41.002 28.1691 42.9612 28.9821 44.4062 30.4271C45.8513 31.8722 46.6642 33.8314 46.6667 35.875ZM40.5 42.0417C40.5 41.224 40.1751 40.4397 39.5969 39.8615C39.0187 39.2832 38.2344 38.9584 37.4167 38.9584C36.5989 38.9584 35.8147 39.2832 35.2364 39.8615C34.6582 40.4397 34.3333 41.224 34.3333 42.0417C34.3333 41.224 34.0085 40.4397 33.4302 39.8615C32.852 39.2832 32.0677 38.9584 31.25 38.9584C30.4322 38.9584 29.648 39.2832 29.0698 39.8615C28.4915 40.4397 28.1667 41.224 28.1667 42.0417C28.1667 44.2771 30.547 47.2695 32.3507 48.7911C32.9049 49.26 33.6074 49.5173 34.3333 49.5173C35.0593 49.5173 35.7617 49.26 36.3159 48.7911C38.1197 47.2695 40.5 44.2771 40.5 42.0417Z" fill="#101828"/>
</g>
<defs>
<clipPath id="clip0_59_1435">
<rect width="37" height="37" fill="white" transform="translate(22 22)"/>
</clipPath>
</defs>
</svg>
