<svg width="18" height="18" viewBox="0 0 18 18" fill="none" xmlns="http://www.w3.org/2000/svg">
<g clip-path="url(#clip0_34_351)">
<path d="M4.36506 14.4794C4.40556 14.5124 4.45206 14.5349 4.49331 14.5672L1.28031 17.7802C1.13886 17.9168 0.949408 17.9924 0.75276 17.9907C0.556113 17.989 0.368003 17.9101 0.228947 17.7711C0.0898912 17.632 0.0110145 17.4439 0.0093057 17.2472C0.00759688 17.0506 0.0831927 16.8611 0.219811 16.7197L3.43356 13.5059C3.70574 13.8651 4.01829 14.1917 4.36506 14.4794ZM7.50006 9.43944L12.2198 4.7197C12.289 4.64806 12.3718 4.59093 12.4633 4.55162C12.5548 4.51231 12.6532 4.49162 12.7528 4.49076C12.8523 4.48989 12.9511 4.50887 13.0433 4.54658C13.1354 4.58429 13.2192 4.63998 13.2896 4.7104C13.36 4.78082 13.4157 4.86456 13.4534 4.95673C13.4911 5.0489 13.5101 5.14766 13.5092 5.24725C13.5084 5.34683 13.4877 5.44525 13.4484 5.53675C13.4091 5.62825 13.3519 5.71101 13.2803 5.7802L10.8106 8.24994H16.2001C16.9293 6.79581 17.5025 5.26855 17.9101 3.6937C18.0299 3.19396 18.019 2.6718 17.8786 2.17747C17.7381 1.68314 17.4728 1.23328 17.1082 0.871182C16.7435 0.509086 16.2918 0.246946 15.7965 0.109991C15.3012 -0.0269645 14.7789 -0.0341246 14.2801 0.0891996C11.8782 0.727305 9.59064 1.73645 7.50006 3.0802V9.43944ZM9.37506 9.74994C9.35631 9.74994 9.33981 9.74019 9.32106 9.73944L4.49331 14.5672C5.47813 15.3361 6.69236 15.7526 7.94181 15.7499C8.77001 15.7468 9.589 15.576 10.3495 15.248C11.1099 14.92 11.7962 14.4414 12.3668 13.8412C13.5361 12.6022 14.5542 11.2289 15.3998 9.74994H9.37506ZM6.00006 10.8749V4.1302C5.27441 4.673 4.5868 5.26489 3.94206 5.9017C3.37326 6.47394 2.9297 7.15824 2.63958 7.91111C2.34945 8.66399 2.2191 9.46898 2.25681 10.2749C2.31053 11.4449 2.72119 12.5703 3.43356 13.4999L6.01056 10.9222C6.00981 10.9102 6.00006 10.8937 6.00006 10.8749Z" fill="#006D77"/>
</g>
<defs>
<clipPath id="clip0_34_351">
<rect width="18" height="18" fill="white"/>
</clipPath>
</defs>
</svg>
