<svg width="125" height="20" viewBox="0 0 125 20" fill="none" xmlns="http://www.w3.org/2000/svg">
<path d="M9.135 19.588C6.055 19.574 3.794 19.056 2.352 18.034C0.924 17.012 0.245 15.367 0.315 13.099H5.544C5.614 14.387 6.811 15.038 9.135 15.052C10.199 15.066 11.004 14.94 11.55 14.674C12.11 14.408 12.39 14.058 12.39 13.624C12.39 12.882 11.711 12.413 10.353 12.217L8.085 11.86C6.125 11.538 4.809 11.265 4.137 11.041C2.275 10.397 1.176 9.256 0.84 7.618C0.77 7.24 0.735 6.834 0.735 6.4C0.735 4.622 1.449 3.243 2.877 2.263C4.319 1.269 6.419 0.772 9.177 0.772C10.241 0.772 11.186 0.835 12.012 0.961C12.852 1.087 13.636 1.304 14.364 1.612C15.106 1.906 15.715 2.298 16.191 2.788C16.667 3.264 17.031 3.873 17.283 4.615C17.549 5.357 17.675 6.225 17.661 7.219H12.474C12.25 5.945 11.109 5.308 9.051 5.308C7.231 5.308 6.321 5.77 6.321 6.694C6.321 7.408 6.874 7.849 7.98 8.017L9.849 8.332C10.101 8.374 10.458 8.43 10.92 8.5C11.382 8.57 11.76 8.626 12.054 8.668C12.362 8.71 12.74 8.78 13.188 8.878C13.636 8.962 14.007 9.053 14.301 9.151C14.595 9.235 14.931 9.354 15.309 9.508C15.687 9.662 16.002 9.83 16.254 10.012C16.506 10.18 16.758 10.39 17.01 10.642C17.276 10.894 17.486 11.174 17.64 11.482C17.794 11.79 17.92 12.147 18.018 12.553C18.116 12.945 18.165 13.379 18.165 13.855C18.165 17.691 15.155 19.602 9.135 19.588ZM31.9289 1.36H37.7459V19H31.9289V12.616H25.0829V19H19.2659V1.36H25.0829V7.744H31.9289V1.36ZM56.1711 17.005C54.3511 18.727 51.9291 19.588 48.9051 19.588C45.8811 19.588 43.4591 18.727 41.6391 17.005C39.8191 15.283 38.9091 13.008 38.9091 10.18C38.9091 7.352 39.8191 5.077 41.6391 3.355C43.4591 1.633 45.8811 0.772 48.9051 0.772C51.9291 0.772 54.3511 1.633 56.1711 3.355C57.9911 5.077 58.9011 7.352 58.9011 10.18C58.9011 13.008 57.9911 15.283 56.1711 17.005ZM45.8811 13.393C46.6931 14.177 47.7011 14.569 48.9051 14.569C50.1091 14.569 51.1101 14.177 51.9081 13.393C52.7201 12.609 53.1261 11.538 53.1261 10.18C53.1261 8.822 52.7201 7.751 51.9081 6.967C51.1101 6.183 50.1091 5.791 48.9051 5.791C47.7011 5.791 46.6931 6.183 45.8811 6.967C45.0831 7.751 44.6841 8.822 44.6841 10.18C44.6841 11.538 45.0831 12.609 45.8811 13.393ZM60.0682 19V1.36H70.0852C72.5492 1.36 74.4392 1.927 75.7552 3.061C77.0852 4.195 77.7502 5.924 77.7502 8.248C77.7502 10.572 77.0852 12.301 75.7552 13.435C74.4392 14.569 72.5562 15.136 70.1062 15.136H65.8852V19H60.0682ZM65.8852 10.306H69.5812C70.2952 10.306 70.8552 10.131 71.2612 9.781C71.6812 9.431 71.8912 8.92 71.8912 8.248C71.8912 7.576 71.6882 7.065 71.2822 6.715C70.8762 6.365 70.3162 6.19 69.6022 6.19H65.8852V10.306ZM82.6973 18.496C82.1233 19.056 81.4443 19.336 80.6603 19.336C79.8763 19.336 79.1973 19.056 78.6233 18.496C78.0493 17.922 77.7623 17.25 77.7623 16.48C77.7623 15.71 78.0493 15.045 78.6233 14.485C79.1973 13.911 79.8763 13.624 80.6603 13.624C81.4443 13.624 82.1233 13.911 82.6973 14.485C83.2713 15.045 83.5583 15.71 83.5583 16.48C83.5583 17.25 83.2713 17.922 82.6973 18.496ZM94.6191 19.588C91.6511 19.588 89.2571 18.727 87.4371 17.005C85.6171 15.283 84.7071 13.008 84.7071 10.18C84.7071 7.352 85.6171 5.077 87.4371 3.355C89.2571 1.633 91.6511 0.772 94.6191 0.772C95.5151 0.772 96.3691 0.856 97.1811 1.024C97.9931 1.178 98.7911 1.451 99.5751 1.843C100.359 2.221 101.045 2.704 101.633 3.292C102.221 3.866 102.718 4.615 103.124 5.539C103.544 6.449 103.81 7.478 103.922 8.626H98.3781C97.9021 6.736 96.6491 5.791 94.6191 5.791C93.4431 5.791 92.4561 6.197 91.6581 7.009C90.8741 7.821 90.4821 8.878 90.4821 10.18C90.4821 11.482 90.8741 12.539 91.6581 13.351C92.4561 14.163 93.4431 14.569 94.6191 14.569C96.6491 14.569 97.9021 13.61 98.3781 11.692H103.922C103.782 13.134 103.425 14.387 102.851 15.451C102.277 16.501 101.549 17.32 100.667 17.908C99.7851 18.496 98.8401 18.923 97.8321 19.189C96.8381 19.455 95.7671 19.588 94.6191 19.588ZM122.247 17.005C120.427 18.727 118.005 19.588 114.981 19.588C111.957 19.588 109.535 18.727 107.715 17.005C105.895 15.283 104.985 13.008 104.985 10.18C104.985 7.352 105.895 5.077 107.715 3.355C109.535 1.633 111.957 0.772 114.981 0.772C118.005 0.772 120.427 1.633 122.247 3.355C124.067 5.077 124.977 7.352 124.977 10.18C124.977 13.008 124.067 15.283 122.247 17.005ZM111.957 13.393C112.769 14.177 113.777 14.569 114.981 14.569C116.185 14.569 117.186 14.177 117.984 13.393C118.796 12.609 119.202 11.538 119.202 10.18C119.202 8.822 118.796 7.751 117.984 6.967C117.186 6.183 116.185 5.791 114.981 5.791C113.777 5.791 112.769 6.183 111.957 6.967C111.159 7.751 110.76 8.822 110.76 10.18C110.76 11.538 111.159 12.609 111.957 13.393Z" fill="black"/>
</svg>
