<svg width="33" height="11" viewBox="0 0 33 11" fill="none" xmlns="http://www.w3.org/2000/svg">
<path d="M16.1111 0.185933L13.9369 10.3495H11.3078L13.4823 0.185933H16.1111ZM27.1728 6.74857L28.557 2.93181L29.3535 6.74857H27.1728ZM30.1062 10.3495H32.5381L30.416 0.185933H28.1713C27.6669 0.185933 27.2413 0.479306 27.0518 0.931592L23.1074 10.3495H25.8684L26.4165 8.83179H29.7897L30.1062 10.3495ZM23.2444 7.03101C23.2557 4.3485 19.5348 4.20085 19.5605 3.00258C19.5682 2.63747 19.916 2.25017 20.6755 2.15077C21.0528 2.10155 22.0902 2.06391 23.2682 2.60595L23.7295 0.450677C23.0968 0.220996 22.2826 0 21.2699 0C18.6714 0 16.8423 1.38163 16.8269 3.35997C16.8104 4.82298 18.1326 5.63941 19.1288 6.12579C20.153 6.62408 20.4972 6.94319 20.4927 7.38872C20.486 8.07101 19.6757 8.37146 18.9197 8.38336C17.5976 8.40427 16.8304 8.02662 16.2189 7.7416L15.7425 9.96861C16.3566 10.2507 17.4905 10.4958 18.6669 10.5084C21.4285 10.5084 23.2354 9.14382 23.2444 7.03101ZM12.3542 0.185933L8.09448 10.3495H5.31483L3.21875 2.23826C3.09136 1.73869 2.9807 1.55598 2.59372 1.34528C1.96226 1.00268 0.918402 0.68068 0 0.481237L0.0627279 0.185933H4.53636C5.10638 0.185933 5.61946 0.565517 5.74878 1.22207L6.856 7.10371L9.59191 0.185933H12.3542Z" fill="#1434CB"/>
</svg>
