<svg width="80" height="80" viewBox="0 0 80 80" fill="none" xmlns="http://www.w3.org/2000/svg">
<circle cx="40" cy="40" r="40" fill="#E4E7EC"/>
<g clip-path="url(#clip0_59_1443)">
<path d="M30.4792 53.375C29.457 53.375 28.4767 52.9689 27.7539 52.2461C27.0311 51.5233 26.625 50.543 26.625 49.5208V23.3125C26.625 22.6992 26.3814 22.111 25.9477 21.6773C25.514 21.2436 24.9258 21 24.3125 21V21C23.6992 21 23.111 21.2436 22.6773 21.6773C22.2436 22.111 22 22.6992 22 23.3125V49.5208C22 51.7696 22.8933 53.9264 24.4835 55.5165C26.0736 57.1067 28.2304 58 30.4792 58H56.6875C57.3008 58 57.889 57.7564 58.3227 57.3227C58.7564 56.889 59 56.3008 59 55.6875C59 55.0742 58.7564 54.486 58.3227 54.0523C57.889 53.6186 57.3008 53.375 56.6875 53.375H30.4792Z" fill="#101828"/>
<path d="M52.0625 48.75C52.6758 48.75 53.264 48.5064 53.6977 48.0727C54.1314 47.639 54.375 47.0508 54.375 46.4375V37.1875C54.375 36.5742 54.1314 35.986 53.6977 35.5523C53.264 35.1186 52.6758 34.875 52.0625 34.875C51.4492 34.875 50.861 35.1186 50.4273 35.5523C49.9936 35.986 49.75 36.5742 49.75 37.1875V46.4375C49.75 47.0508 49.9936 47.639 50.4273 48.0727C50.861 48.5064 51.4492 48.75 52.0625 48.75Z" fill="#101828"/>
<path d="M33.5625 48.75C34.1758 48.75 34.764 48.5064 35.1977 48.0727C35.6314 47.639 35.875 47.0508 35.875 46.4375V37.1875C35.875 36.5742 35.6314 35.986 35.1977 35.5523C34.764 35.1186 34.1758 34.875 33.5625 34.875C32.9492 34.875 32.361 35.1186 31.9273 35.5523C31.4936 35.986 31.25 36.5742 31.25 37.1875V46.4375C31.25 47.0508 31.4936 47.639 31.9273 48.0727C32.361 48.5064 32.9492 48.75 33.5625 48.75Z" fill="#101828"/>
<path d="M42.8125 48.75C43.4258 48.75 44.014 48.5063 44.4477 48.0727C44.8814 47.639 45.125 47.0508 45.125 46.4375V29.4791C45.125 28.8658 44.8814 28.2776 44.4477 27.8439C44.014 27.4103 43.4258 27.1666 42.8125 27.1666C42.1992 27.1666 41.611 27.4103 41.1773 27.8439C40.7436 28.2776 40.5 28.8658 40.5 29.4791V46.4375C40.5 47.0508 40.7436 47.639 41.1773 48.0727C41.611 48.5063 42.1992 48.75 42.8125 48.75Z" fill="#101828"/>
</g>
<defs>
<clipPath id="clip0_59_1443">
<rect width="37" height="37" fill="white" transform="translate(22 21)"/>
</clipPath>
</defs>
</svg>
